<svg width="66" height="64" viewBox="0 0 66 64" fill="none" xmlns="http://www.w3.org/2000/svg">
<g clip-path="url(#clip0_7528_570)">
<path d="M23.0528 24.2517C24.6381 25.8188 26.7472 26.6671 28.9725 26.6671H36.4632C38.7031 26.6671 40.7976 25.8044 42.383 24.2517L56.2443 10.5932C56.2443 10.5932 56.288 10.4782 56.2443 10.435C56.157 10.3344 56.0553 10.2482 55.9534 10.1475C55.9534 10.1331 55.9388 10.1044 55.9097 10.09C54.7753 8.95417 53.5389 7.89024 52.2445 6.92696C52.2008 6.8982 52.1572 6.86945 52.1135 6.8407C51.7935 6.61066 51.4736 6.36624 51.139 6.15058H51.1099C50.9936 6.06432 50.8772 5.97805 50.7609 5.90617C50.7172 5.87741 50.659 5.87741 50.6154 5.90617L37.1905 19.119C36.9868 19.3203 36.725 19.4209 36.4486 19.4209H36.3759V0.816573C36.3759 0.759064 36.3323 0.715932 36.2741 0.701554C36.1286 0.687177 35.9832 0.6728 35.8377 0.658422C35.8377 0.658422 35.8232 0.658422 35.8086 0.658422C35.7359 0.658422 35.6486 0.658422 35.5759 0.644045C35.1687 0.61529 34.7614 0.586535 34.3542 0.557781C34.2814 0.557781 34.2233 0.557781 34.1506 0.557781C33.6706 0.529026 33.1906 0.514648 32.7106 0.514648C32.2306 0.514648 31.7507 0.529026 31.2707 0.557781C31.1979 0.557781 31.1397 0.557781 31.067 0.557781C30.6598 0.572158 30.2525 0.600913 29.8452 0.644045C29.7725 0.644045 29.6852 0.644045 29.6125 0.658422C29.6125 0.658422 29.5979 0.658422 29.5835 0.658422C29.4379 0.658422 29.2925 0.687177 29.1471 0.701554C29.0889 0.701554 29.0452 0.759064 29.0452 0.816573V19.4209H28.958C28.6816 19.4209 28.4199 19.3059 28.2162 19.119L14.8349 5.90617C14.8349 5.90617 14.7331 5.86304 14.6894 5.90617C14.5731 5.99243 14.4566 6.0787 14.3258 6.15058H14.2966C13.9767 6.36624 13.6567 6.59628 13.3367 6.8407C13.2931 6.86945 13.2349 6.91258 13.1913 6.94133C12.2459 7.64583 11.344 8.39346 10.4714 9.19859C10.1514 9.48613 9.8314 9.78809 9.52596 10.1044C9.5114 10.1188 9.49683 10.1475 9.48231 10.1619C9.3805 10.2625 9.29323 10.3488 9.19141 10.4494C9.14778 10.4926 9.14778 10.5644 9.19141 10.6076L23.0382 24.2661L23.0528 24.2517Z" fill="#121D59"/>
<path d="M25.4673 32.5331C24.3473 30.6497 22.5583 29.2839 20.4348 28.7088L1.58451 23.6191C1.58451 23.6191 1.45361 23.6335 1.43906 23.691C1.39542 23.8204 1.36634 23.9643 1.3227 24.0937C1.3227 24.0937 1.30815 24.1224 1.29361 24.1368C1.26452 24.2662 1.23543 24.3812 1.20634 24.5106C1.17725 24.5969 1.1627 24.6831 1.14816 24.7694C1.0318 25.2007 0.929987 25.6464 0.842717 26.0777C0.813628 26.2359 0.769993 26.4084 0.740903 26.5666C0.668178 26.9116 0.609998 27.2567 0.551819 27.6161C0.522729 27.8174 0.493639 28.033 0.464549 28.2343C0.435459 28.4499 0.406369 28.6513 0.37728 28.867C0.333645 29.212 0.304555 29.557 0.275465 29.9021C0.275465 30.0027 0.246375 30.1034 0.246375 30.204C0.246375 30.2184 0.246375 30.2328 0.246375 30.2471C0.246375 30.3909 0.217285 30.5347 0.217285 30.6641C0.217285 30.7216 0.246375 30.7647 0.304555 30.7791L18.5002 35.6962C18.7621 35.7681 18.9948 35.9406 19.1257 36.1707L19.1694 36.2425L2.95174 45.516C2.95174 45.516 2.87901 45.6022 2.9081 45.6597C2.96628 45.7747 3.02445 45.8897 3.08264 46.0191C3.08264 46.0479 3.08264 46.0623 3.09718 46.091C3.46081 46.8674 3.83897 47.6151 4.26078 48.3627L4.52258 48.8227L4.76986 49.2396C5.22075 49.9729 5.68619 50.6918 6.19526 51.3963C6.19526 51.4106 6.22434 51.425 6.23889 51.4394C6.31162 51.5544 6.39889 51.6694 6.47161 51.77C6.5007 51.8132 6.57342 51.8276 6.61706 51.7988L22.8783 42.5254C23.0237 42.7699 23.0529 43.043 22.9801 43.3162L18.1948 61.4317C18.1948 61.4317 18.1948 61.5324 18.253 61.5611C18.3694 61.6186 18.5002 61.6761 18.6166 61.7336C18.6312 61.748 18.6458 61.7624 18.6748 61.7768C20.5365 62.6538 22.4856 63.3726 24.5219 63.8903C24.551 63.8903 24.5655 63.8903 24.58 63.8903C24.7109 63.919 24.8419 63.9621 24.9728 63.9909C25.0309 64.0053 25.1036 63.9621 25.1182 63.9046L30.078 45.1422C30.6453 42.9999 30.3399 40.7714 29.2054 38.8736L25.4673 32.5188V32.5331Z" fill="#121D59"/>
<path d="M65.2182 30.2045C65.2182 30.1038 65.189 29.9888 65.189 29.8882C65.1599 29.5719 65.1309 29.27 65.0872 28.9537C65.0582 28.7093 65.029 28.4649 64.9854 28.2061C64.9563 28.0191 64.9272 27.8322 64.8982 27.6453C64.84 27.2715 64.7672 26.8977 64.6945 26.5239C64.6654 26.3802 64.6363 26.2364 64.6073 26.0926C64.5054 25.5893 64.389 25.0862 64.2582 24.5973C64.2582 24.5686 64.2582 24.5398 64.2436 24.5111C64.2146 24.3817 64.1854 24.2523 64.1418 24.1229C64.1418 24.1085 64.1418 24.0942 64.1127 24.0798C64.069 23.9504 64.04 23.8066 63.9963 23.6772C63.9818 23.6197 63.9091 23.5766 63.8509 23.6053L45.0007 28.6949C42.8626 29.27 41.0736 30.6215 39.9681 32.5192L36.2301 38.8597C35.1101 40.7575 34.8046 43.0148 35.3573 45.1426L40.3317 63.8907C40.3317 63.8907 40.4044 63.9914 40.4771 63.977C40.6081 63.9482 40.739 63.9051 40.8699 63.8764C40.8844 63.8764 40.9136 63.8764 40.9426 63.8764C42.9789 63.3588 44.9279 62.6399 46.7897 61.7629C46.8042 61.7629 46.8333 61.7341 46.8478 61.7198C46.9642 61.6622 47.0951 61.6047 47.2115 61.5472C47.2551 61.5185 47.2842 61.461 47.2697 61.4178L42.4699 43.3023C42.3971 43.0292 42.4407 42.756 42.5716 42.5116L58.8329 51.785C58.8911 51.8138 58.9492 51.7994 58.9783 51.7563C59.0656 51.6412 59.1383 51.5405 59.2111 51.4255C59.2256 51.4255 59.2402 51.3967 59.2547 51.3824C59.4874 51.0517 59.7201 50.721 59.9383 50.3904C59.9528 50.3616 59.9819 50.3329 59.9965 50.3041C60.8837 48.967 61.6691 47.558 62.3528 46.0915C62.3528 46.0628 62.3673 46.0484 62.3673 46.0196C62.4255 45.9046 62.4837 45.7896 62.5418 45.6602C62.571 45.6027 62.5418 45.5452 62.4982 45.5164L46.2661 36.2574L46.3097 36.1855C46.4407 35.9555 46.6733 35.783 46.9351 35.7111L65.1454 30.794C65.1454 30.794 65.2326 30.7365 65.2326 30.679C65.2326 30.5352 65.2182 30.3914 65.2036 30.262C65.2036 30.2476 65.2036 30.2332 65.2036 30.2189L65.2182 30.2045Z" fill="#121D59"/>
</g>
<defs>
<clipPath id="clip0_7528_570">
<rect width="66" height="64" fill="white"/>
</clipPath>
</defs>
</svg>
