<svg width="66" height="64" viewBox="0 0 66 64" fill="none" xmlns="http://www.w3.org/2000/svg">
<g clip-path="url(#clip0_7528_555)">
<path d="M23.6182 23.7517C25.2035 25.3188 27.3126 26.1671 29.5379 26.1671H37.0286C39.2685 26.1671 41.363 25.3044 42.9484 23.7517L56.8097 10.0932C56.8097 10.0932 56.8534 9.97818 56.8097 9.93505C56.7224 9.83441 56.6207 9.74815 56.5188 9.64751C56.5188 9.63314 56.5043 9.60438 56.4752 9.59C55.3407 8.45417 54.1044 7.39024 52.8099 6.42696C52.7662 6.3982 52.7226 6.36945 52.6789 6.3407C52.3589 6.11066 52.039 5.86624 51.7045 5.65058H51.6753C51.559 5.56432 51.4426 5.47805 51.3263 5.40617C51.2826 5.37741 51.2245 5.37741 51.1809 5.40617L37.7559 18.619C37.5522 18.8203 37.2905 18.9209 37.0141 18.9209H36.9413V0.316573C36.9413 0.259064 36.8977 0.215932 36.8395 0.201554C36.6941 0.187177 36.5486 0.1728 36.4032 0.158422C36.4032 0.158422 36.3886 0.158422 36.3741 0.158422C36.3013 0.158422 36.2141 0.158422 36.1413 0.144045C35.7341 0.11529 35.3269 0.0865354 34.9196 0.0577806C34.8469 0.0577806 34.7887 0.0577806 34.716 0.0577806C34.236 0.0290259 33.756 0.0146484 33.276 0.0146484C32.796 0.0146484 32.3161 0.0290259 31.8361 0.0577806C31.7634 0.0577806 31.7051 0.0577806 31.6324 0.0577806C31.2252 0.072158 30.8179 0.100913 30.4106 0.144045C30.3379 0.144045 30.2506 0.144045 30.1779 0.158422C30.1779 0.158422 30.1634 0.158422 30.1489 0.158422C30.0034 0.158422 29.8579 0.187177 29.7125 0.201554C29.6543 0.201554 29.6106 0.259064 29.6106 0.316573V18.9209H29.5235C29.2471 18.9209 28.9853 18.8059 28.7816 18.619L15.4003 5.40617C15.4003 5.40617 15.2985 5.36304 15.2548 5.40617C15.1385 5.49243 15.0221 5.5787 14.8912 5.65058H14.8621C14.5422 5.86624 14.2222 6.09628 13.9022 6.3407C13.8585 6.36945 13.8003 6.41258 13.7567 6.44133C12.8113 7.14583 11.9095 7.89346 11.0368 8.69859C10.7168 8.98613 10.3968 9.28809 10.0914 9.60438C10.0768 9.61876 10.0623 9.64751 10.0477 9.66189C9.94593 9.76253 9.85866 9.84879 9.75684 9.94943C9.71321 9.99256 9.71321 10.0644 9.75684 10.1076L23.6036 23.7661L23.6182 23.7517Z" fill="#081128"/>
<path d="M26.0328 32.0331C24.9128 30.1497 23.1237 28.7839 21.0002 28.2088L2.14994 23.1191C2.14994 23.1191 2.01904 23.1335 2.00449 23.191C1.96085 23.3204 1.93177 23.4643 1.88813 23.5937C1.88813 23.5937 1.87358 23.6224 1.85904 23.6368C1.82995 23.7662 1.80086 23.8812 1.77177 24.0106C1.74268 24.0969 1.72813 24.1831 1.71359 24.2694C1.59723 24.7007 1.49542 25.1464 1.40815 25.5777C1.37906 25.7359 1.33542 25.9084 1.30633 26.0666C1.23361 26.4116 1.17543 26.7567 1.11725 27.1161C1.08816 27.3174 1.05907 27.533 1.02998 27.7343C1.00089 27.9499 0.971799 28.1513 0.942709 28.367C0.899074 28.712 0.869984 29.057 0.840895 29.4021C0.840895 29.5027 0.811805 29.6034 0.811805 29.704C0.811805 29.7184 0.811805 29.7328 0.811805 29.7471C0.811805 29.8909 0.782715 30.0347 0.782715 30.1641C0.782715 30.2216 0.811805 30.2647 0.869984 30.2791L19.0657 35.1962C19.3275 35.2681 19.5602 35.4406 19.6911 35.6707L19.7348 35.7425L3.51717 45.016C3.51717 45.016 3.44444 45.1022 3.47353 45.1597C3.53171 45.2747 3.58988 45.3897 3.64807 45.5191C3.64807 45.5479 3.64807 45.5623 3.66261 45.591C4.02623 46.3674 4.4044 47.1151 4.82621 47.8627L5.08801 48.3227L5.33528 48.7396C5.78618 49.4729 6.25162 50.1918 6.76069 50.8963C6.76069 50.9106 6.78977 50.925 6.80432 50.9394C6.87705 51.0544 6.96432 51.1694 7.03704 51.27C7.06613 51.3132 7.13885 51.3276 7.18249 51.2988L23.4437 42.0254C23.5892 42.2699 23.6183 42.543 23.5456 42.8162L18.7602 60.9317C18.7602 60.9317 18.7602 61.0324 18.8185 61.0611C18.9348 61.1186 19.0657 61.1761 19.1821 61.2336C19.1966 61.248 19.2112 61.2624 19.2402 61.2768C21.102 62.1538 23.051 62.8726 25.0873 63.3903C25.1164 63.3903 25.1309 63.3903 25.1455 63.3903C25.2763 63.419 25.4073 63.4621 25.5382 63.4909C25.5963 63.5053 25.6691 63.4621 25.6836 63.4046L30.6434 44.6422C31.2107 42.4999 30.9053 40.2714 29.7708 38.3736L26.0328 32.0188V32.0331Z" fill="#081128"/>
<path d="M65.7836 29.7045C65.7836 29.6038 65.7545 29.4888 65.7545 29.3882C65.7253 29.0719 65.6963 28.77 65.6526 28.4537C65.6236 28.2093 65.5945 27.9649 65.5509 27.7061C65.5217 27.5191 65.4926 27.3322 65.4636 27.1453C65.4054 26.7715 65.3326 26.3977 65.2599 26.0239C65.2309 25.8802 65.2017 25.7364 65.1727 25.5926C65.0709 25.0893 64.9545 24.5862 64.8236 24.0973C64.8236 24.0686 64.8236 24.0398 64.809 24.0111C64.78 23.8817 64.7509 23.7523 64.7073 23.6229C64.7073 23.6085 64.7073 23.5942 64.6781 23.5798C64.6345 23.4504 64.6054 23.3066 64.5617 23.1772C64.5473 23.1197 64.4746 23.0766 64.4163 23.1053L45.5661 28.1949C43.428 28.77 41.639 30.1215 40.5335 32.0192L36.7955 38.3597C35.6755 40.2575 35.37 42.5148 35.9228 44.6426L40.8971 63.3907C40.8971 63.3907 40.9699 63.4914 41.0426 63.477C41.1735 63.4482 41.3044 63.4051 41.4353 63.3764C41.4499 63.3764 41.479 63.3764 41.508 63.3764C43.5443 62.8588 45.4934 62.1399 47.3551 61.2629C47.3697 61.2629 47.3987 61.2341 47.4133 61.2198C47.5297 61.1622 47.6606 61.1047 47.777 61.0472C47.8206 61.0185 47.8497 60.961 47.8351 60.9178L43.0353 42.8023C42.9626 42.5292 43.0062 42.256 43.1371 42.0116L59.3983 51.285C59.4565 51.3138 59.5146 51.2994 59.5438 51.2563C59.6311 51.1412 59.7038 51.0405 59.7765 50.9255C59.7911 50.9255 59.8056 50.8967 59.8201 50.8824C60.0528 50.5517 60.2855 50.221 60.5038 49.8904C60.5182 49.8616 60.5474 49.8329 60.5619 49.8041C61.4491 48.467 62.2346 47.058 62.9182 45.5915C62.9182 45.5628 62.9327 45.5484 62.9327 45.5196C62.991 45.4046 63.0491 45.2896 63.1073 45.1602C63.1364 45.1027 63.1073 45.0452 63.0637 45.0164L46.8315 35.7574L46.8751 35.6855C47.0061 35.4555 47.2387 35.283 47.5006 35.2111L65.7109 30.294C65.7109 30.294 65.7981 30.2365 65.7981 30.179C65.7981 30.0352 65.7836 29.8914 65.769 29.762C65.769 29.7476 65.769 29.7332 65.769 29.7189L65.7836 29.7045Z" fill="#081128"/>
</g>
<defs>
<clipPath id="clip0_7528_555">
<rect width="66" height="64" fill="white"/>
</clipPath>
</defs>
</svg>
