<svg width="66" height="64" viewBox="0 0 66 64" fill="none" xmlns="http://www.w3.org/2000/svg">
<g clip-path="url(#clip0_7528_585)">
<path d="M23.4873 24.2517C25.0727 25.8188 27.1817 26.6671 29.4071 26.6671H36.8978C39.1377 26.6671 41.2321 25.8044 42.8176 24.2517L56.6789 10.5932C56.6789 10.5932 56.7225 10.4782 56.6789 10.435C56.5916 10.3344 56.4898 10.2482 56.388 10.1475C56.388 10.1331 56.3734 10.1044 56.3443 10.09C55.2098 8.95417 53.9735 7.89024 52.679 6.92696C52.6354 6.8982 52.5918 6.86945 52.5481 6.8407C52.2281 6.61066 51.9082 6.36624 51.5736 6.15058H51.5445C51.4282 6.06432 51.3118 5.97805 51.1954 5.90617C51.1518 5.87741 51.0936 5.87741 51.05 5.90617L37.625 19.119C37.4214 19.3203 37.1596 19.4209 36.8832 19.4209H36.8105V0.816573C36.8105 0.759064 36.7669 0.715932 36.7086 0.701554C36.5632 0.687177 36.4178 0.6728 36.2723 0.658422C36.2723 0.658422 36.2578 0.658422 36.2432 0.658422C36.1705 0.658422 36.0832 0.658422 36.0105 0.644045C35.6033 0.61529 35.196 0.586535 34.7887 0.557781C34.716 0.557781 34.6578 0.557781 34.5851 0.557781C34.1051 0.529026 33.6251 0.514648 33.1451 0.514648C32.6651 0.514648 32.1852 0.529026 31.7052 0.557781C31.6325 0.557781 31.5743 0.557781 31.5015 0.557781C31.0943 0.572158 30.6871 0.600913 30.2798 0.644045C30.2071 0.644045 30.1198 0.644045 30.0471 0.658422C30.0471 0.658422 30.0325 0.658422 30.018 0.658422C29.8725 0.658422 29.7271 0.687177 29.5816 0.701554C29.5235 0.701554 29.4798 0.759064 29.4798 0.816573V19.4209H29.3926C29.1162 19.4209 28.8544 19.3059 28.6508 19.119L15.2695 5.90617C15.2695 5.90617 15.1676 5.86304 15.1239 5.90617C15.0076 5.99243 14.8912 6.0787 14.7603 6.15058H14.7312C14.4113 6.36624 14.0913 6.59628 13.7713 6.8407C13.7276 6.86945 13.6695 6.91258 13.6259 6.94133C12.6804 7.64583 11.7786 8.39346 10.906 9.19859C10.586 9.48613 10.266 9.78809 9.96053 10.1044C9.94597 10.1188 9.9314 10.1475 9.91688 10.1619C9.81507 10.2625 9.7278 10.3488 9.62599 10.4494C9.58235 10.4926 9.58235 10.5644 9.62599 10.6076L23.4728 24.2661L23.4873 24.2517Z" fill="#AAEBF2"/>
<path d="M25.9019 32.5331C24.7819 30.6497 22.9929 29.2839 20.8694 28.7088L2.01908 23.6191C2.01908 23.6191 1.88818 23.6335 1.87363 23.691C1.82999 23.8204 1.80091 23.9643 1.75727 24.0937C1.75727 24.0937 1.74272 24.1224 1.72818 24.1368C1.69909 24.2662 1.67 24.3812 1.64092 24.5106C1.61182 24.5969 1.59727 24.6831 1.58273 24.7694C1.46637 25.2007 1.36456 25.6464 1.27729 26.0777C1.2482 26.2359 1.20456 26.4084 1.17547 26.5666C1.10275 26.9116 1.04457 27.2567 0.986389 27.6161C0.9573 27.8174 0.928209 28.033 0.899119 28.2343C0.87003 28.4499 0.840939 28.6513 0.81185 28.867C0.768215 29.212 0.739125 29.557 0.710035 29.9021C0.710035 30.0027 0.680945 30.1034 0.680945 30.204C0.680945 30.2184 0.680945 30.2328 0.680945 30.2471C0.680945 30.3909 0.651855 30.5347 0.651855 30.6641C0.651855 30.7216 0.680945 30.7647 0.739125 30.7791L18.9348 35.6962C19.1966 35.7681 19.4294 35.9406 19.5602 36.1707L19.6039 36.2425L3.38631 45.516C3.38631 45.516 3.31358 45.6022 3.34267 45.6597C3.40085 45.7747 3.45903 45.8897 3.51721 46.0191C3.51721 46.0479 3.51721 46.0623 3.53175 46.091C3.89538 46.8674 4.27354 47.6151 4.69535 48.3627L4.95715 48.8227L5.20443 49.2396C5.65532 49.9729 6.12076 50.6918 6.62983 51.3963C6.62983 51.4106 6.65891 51.425 6.67346 51.4394C6.74619 51.5544 6.83346 51.6694 6.90618 51.77C6.93527 51.8132 7.00799 51.8276 7.05163 51.7988L23.3129 42.5254C23.4583 42.7699 23.4874 43.043 23.4147 43.3162L18.6294 61.4317C18.6294 61.4317 18.6294 61.5324 18.6876 61.5611C18.8039 61.6186 18.9348 61.6761 19.0512 61.7336C19.0658 61.748 19.0803 61.7624 19.1094 61.7768C20.9711 62.6538 22.9201 63.3726 24.9565 63.8903C24.9856 63.8903 25.0001 63.8903 25.0146 63.8903C25.1455 63.919 25.2765 63.9621 25.4073 63.9909C25.4655 64.0053 25.5382 63.9621 25.5528 63.9046L30.5126 45.1422C31.0799 42.9999 30.7744 40.7714 29.64 38.8736L25.9019 32.5188V32.5331Z" fill="#AAEBF2"/>
<path d="M65.6527 30.2045C65.6527 30.1038 65.6236 29.9888 65.6236 29.8882C65.5945 29.5719 65.5654 29.27 65.5218 28.9537C65.4927 28.7093 65.4636 28.4649 65.42 28.2061C65.3909 28.0191 65.3618 27.8322 65.3327 27.6453C65.2746 27.2715 65.2018 26.8977 65.129 26.5239C65.1 26.3802 65.0709 26.2364 65.0419 26.0926C64.94 25.5893 64.8236 25.0862 64.6927 24.5973C64.6927 24.5686 64.6927 24.5398 64.6782 24.5111C64.6491 24.3817 64.62 24.2523 64.5764 24.1229C64.5764 24.1085 64.5764 24.0942 64.5473 24.0798C64.5036 23.9504 64.4746 23.8066 64.4309 23.6772C64.4164 23.6197 64.3437 23.5766 64.2854 23.6053L45.4352 28.6949C43.2972 29.27 41.5081 30.6215 40.4027 32.5192L36.6646 38.8597C35.5446 40.7575 35.2392 43.0148 35.7919 45.1426L40.7663 63.8907C40.7663 63.8907 40.839 63.9914 40.9117 63.977C41.0427 63.9482 41.1736 63.9051 41.3044 63.8764C41.319 63.8764 41.3481 63.8764 41.3772 63.8764C43.4135 63.3588 45.3625 62.6399 47.2243 61.7629C47.2388 61.7629 47.2678 61.7341 47.2824 61.7198C47.3988 61.6622 47.5297 61.6047 47.6461 61.5472C47.6897 61.5185 47.7188 61.461 47.7043 61.4178L42.9044 43.3023C42.8317 43.0292 42.8753 42.756 43.0062 42.5116L59.2675 51.785C59.3256 51.8138 59.3838 51.7994 59.4129 51.7563C59.5002 51.6412 59.5729 51.5405 59.6456 51.4255C59.6602 51.4255 59.6748 51.3967 59.6892 51.3824C59.9219 51.0517 60.1547 50.721 60.3729 50.3904C60.3874 50.3616 60.4165 50.3329 60.4311 50.3041C61.3183 48.967 62.1037 47.558 62.7874 46.0915C62.7874 46.0628 62.8019 46.0484 62.8019 46.0196C62.8601 45.9046 62.9183 45.7896 62.9764 45.6602C63.0055 45.6027 62.9764 45.5452 62.9328 45.5164L46.7007 36.2574L46.7443 36.1855C46.8752 35.9555 47.1078 35.783 47.3697 35.7111L65.58 30.794C65.58 30.794 65.6672 30.7365 65.6672 30.679C65.6672 30.5352 65.6527 30.3914 65.6382 30.262C65.6382 30.2476 65.6382 30.2332 65.6382 30.2189L65.6527 30.2045Z" fill="#AAEBF2"/>
</g>
<defs>
<clipPath id="clip0_7528_585">
<rect width="66" height="64" fill="white"/>
</clipPath>
</defs>
</svg>
