<svg width="66" height="64" viewBox="0 0 66 64" fill="none" xmlns="http://www.w3.org/2000/svg">
<g clip-path="url(#clip0_7528_600)">
<path d="M22.9219 24.2517C24.5073 25.8188 26.6163 26.6671 28.8416 26.6671H36.3323C38.5722 26.6671 40.6667 25.8044 42.2521 24.2517L56.1134 10.5932C56.1134 10.5932 56.1571 10.4782 56.1134 10.435C56.0261 10.3344 55.9244 10.2482 55.8226 10.1475C55.8226 10.1331 55.808 10.1044 55.7789 10.09C54.6444 8.95417 53.4081 7.89024 52.1136 6.92696C52.0699 6.8982 52.0263 6.86945 51.9826 6.8407C51.6626 6.61066 51.3427 6.36624 51.0082 6.15058H50.9791C50.8627 6.06432 50.7463 5.97805 50.63 5.90617C50.5863 5.87741 50.5282 5.87741 50.4846 5.90617L37.0596 19.119C36.8559 19.3203 36.5942 19.4209 36.3178 19.4209H36.245V0.816573C36.245 0.759064 36.2015 0.715932 36.1432 0.701554C35.9978 0.687177 35.8523 0.6728 35.7069 0.658422C35.7069 0.658422 35.6923 0.658422 35.6778 0.658422C35.605 0.658422 35.5178 0.658422 35.445 0.644045C35.0379 0.61529 34.6306 0.586535 34.2233 0.557781C34.1506 0.557781 34.0924 0.557781 34.0197 0.557781C33.5397 0.529026 33.0597 0.514648 32.5797 0.514648C32.0997 0.514648 31.6198 0.529026 31.1398 0.557781C31.0671 0.557781 31.0088 0.557781 30.9361 0.557781C30.5289 0.572158 30.1216 0.600913 29.7144 0.644045C29.6416 0.644045 29.5544 0.644045 29.4816 0.658422C29.4816 0.658422 29.4671 0.658422 29.4526 0.658422C29.3071 0.658422 29.1616 0.687177 29.0162 0.701554C28.958 0.701554 28.9144 0.759064 28.9144 0.816573V19.4209H28.8272C28.5508 19.4209 28.289 19.3059 28.0853 19.119L14.704 5.90617C14.704 5.90617 14.6022 5.86304 14.5585 5.90617C14.4422 5.99243 14.3258 6.0787 14.1949 6.15058H14.1658C13.8459 6.36624 13.5259 6.59628 13.2059 6.8407C13.1622 6.86945 13.104 6.91258 13.0604 6.94133C12.115 7.64583 11.2132 8.39346 10.3405 9.19859C10.0205 9.48613 9.70054 9.78809 9.3951 10.1044C9.38054 10.1188 9.36598 10.1475 9.35145 10.1619C9.24964 10.2625 9.16237 10.3488 9.06056 10.4494C9.01692 10.4926 9.01692 10.5644 9.06056 10.6076L22.9074 24.2661L22.9219 24.2517Z" fill="white"/>
<path d="M25.3365 32.5331C24.2165 30.6497 22.4274 29.2839 20.3039 28.7088L1.45365 23.6191C1.45365 23.6191 1.32275 23.6335 1.3082 23.691C1.26456 23.8204 1.23548 23.9643 1.19184 24.0937C1.19184 24.0937 1.17729 24.1224 1.16275 24.1368C1.13366 24.2662 1.10457 24.3812 1.07549 24.5106C1.04639 24.5969 1.03184 24.6831 1.0173 24.7694C0.900943 25.2007 0.799128 25.6464 0.711858 26.0777C0.682768 26.2359 0.639133 26.4084 0.610044 26.5666C0.537319 26.9116 0.479139 27.2567 0.420959 27.6161C0.39187 27.8174 0.36278 28.033 0.333689 28.2343C0.3046 28.4499 0.27551 28.6513 0.24642 28.867C0.202785 29.212 0.173695 29.557 0.144606 29.9021C0.144606 30.0027 0.115516 30.1034 0.115516 30.204C0.115516 30.2184 0.115516 30.2328 0.115516 30.2471C0.115516 30.3909 0.0864258 30.5347 0.0864258 30.6641C0.0864258 30.7216 0.115516 30.7647 0.173695 30.7791L18.3694 35.6962C18.6312 35.7681 18.8639 35.9406 18.9948 36.1707L19.0385 36.2425L2.82088 45.516C2.82088 45.516 2.74815 45.6022 2.77724 45.6597C2.83542 45.7747 2.8936 45.8897 2.95178 46.0191C2.95178 46.0479 2.95178 46.0623 2.96632 46.091C3.32995 46.8674 3.70811 47.6151 4.12992 48.3627L4.39172 48.8227L4.639 49.2396C5.08989 49.9729 5.55533 50.6918 6.0644 51.3963C6.0644 51.4106 6.09348 51.425 6.10803 51.4394C6.18076 51.5544 6.26803 51.6694 6.34075 51.77C6.36984 51.8132 6.44256 51.8276 6.4862 51.7988L22.7474 42.5254C22.8929 42.7699 22.922 43.043 22.8493 43.3162L18.0639 61.4317C18.0639 61.4317 18.0639 61.5324 18.1222 61.5611C18.2385 61.6186 18.3694 61.6761 18.4858 61.7336C18.5003 61.748 18.5149 61.7624 18.5439 61.7768C20.4057 62.6538 22.3547 63.3726 24.391 63.8903C24.4202 63.8903 24.4346 63.8903 24.4492 63.8903C24.5801 63.919 24.711 63.9621 24.8419 63.9909C24.9001 64.0053 24.9728 63.9621 24.9873 63.9046L29.9472 45.1422C30.5144 42.9999 30.209 40.7714 29.0745 38.8736L25.3365 32.5188V32.5331Z" fill="white"/>
<path d="M65.0873 30.2045C65.0873 30.1038 65.0582 29.9888 65.0582 29.8882C65.029 29.5719 65 29.27 64.9563 28.9537C64.9273 28.7093 64.8982 28.4649 64.8546 28.2061C64.8255 28.0191 64.7963 27.8322 64.7673 27.6453C64.7091 27.2715 64.6363 26.8977 64.5636 26.5239C64.5346 26.3802 64.5055 26.2364 64.4764 26.0926C64.3746 25.5893 64.2582 25.0862 64.1273 24.5973C64.1273 24.5686 64.1273 24.5398 64.1127 24.5111C64.0837 24.3817 64.0546 24.2523 64.011 24.1229C64.011 24.1085 64.011 24.0942 63.9819 24.0798C63.9382 23.9504 63.9091 23.8066 63.8655 23.6772C63.851 23.6197 63.7783 23.5766 63.72 23.6053L44.8698 28.6949C42.7317 29.27 40.9427 30.6215 39.8373 32.5192L36.0992 38.8597C34.9792 40.7575 34.6738 43.0148 35.2265 45.1426L40.2009 63.8907C40.2009 63.8907 40.2736 63.9914 40.3463 63.977C40.4773 63.9482 40.6081 63.9051 40.739 63.8764C40.7536 63.8764 40.7827 63.8764 40.8117 63.8764C42.848 63.3588 44.7971 62.6399 46.6588 61.7629C46.6734 61.7629 46.7024 61.7341 46.717 61.7198C46.8334 61.6622 46.9643 61.6047 47.0807 61.5472C47.1243 61.5185 47.1534 61.461 47.1388 61.4178L42.339 43.3023C42.2663 43.0292 42.3099 42.756 42.4408 42.5116L58.702 51.785C58.7602 51.8138 58.8184 51.7994 58.8475 51.7563C58.9348 51.6412 59.0075 51.5405 59.0802 51.4255C59.0948 51.4255 59.1093 51.3967 59.1238 51.3824C59.3565 51.0517 59.5892 50.721 59.8075 50.3904C59.822 50.3616 59.8511 50.3329 59.8656 50.3041C60.7528 48.967 61.5383 47.558 62.222 46.0915C62.222 46.0628 62.2364 46.0484 62.2364 46.0196C62.2947 45.9046 62.3528 45.7896 62.411 45.6602C62.4401 45.6027 62.411 45.5452 62.3674 45.5164L46.1352 36.2574L46.1788 36.1855C46.3098 35.9555 46.5424 35.783 46.8043 35.7111L65.0146 30.794C65.0146 30.794 65.1018 30.7365 65.1018 30.679C65.1018 30.5352 65.0873 30.3914 65.0727 30.262C65.0727 30.2476 65.0727 30.2332 65.0727 30.2189L65.0873 30.2045Z" fill="white"/>
</g>
<defs>
<clipPath id="clip0_7528_600">
<rect width="66" height="64" fill="white"/>
</clipPath>
</defs>
</svg>
