<svg width="251" height="64" viewBox="0 0 251 64" fill="none" xmlns="http://www.w3.org/2000/svg">
<g clip-path="url(#clip0_7528_427)">
<mask id="mask0_7528_427" style="mask-type:luminance" maskUnits="userSpaceOnUse" x="0" y="0" width="251" height="64">
<path d="M250.435 0H0V63.4905H250.435V0Z" fill="white"/>
</mask>
<g mask="url(#mask0_7528_427)">
<path d="M22.8355 23.7517C24.4208 25.3188 26.5299 26.1671 28.7552 26.1671H36.2459C38.4858 26.1671 40.5803 25.3044 42.1657 23.7517L56.027 10.0932C56.027 10.0932 56.0707 9.97818 56.027 9.93505C55.9397 9.83441 55.838 9.74815 55.7361 9.64751C55.7361 9.63314 55.7216 9.60438 55.6924 9.59C54.558 8.45417 53.3217 7.39024 52.0272 6.42696C51.9835 6.3982 51.9399 6.36945 51.8962 6.3407C51.5762 6.11066 51.2563 5.86624 50.9217 5.65058H50.8926C50.7763 5.56432 50.6599 5.47805 50.5436 5.40617C50.4999 5.37741 50.4418 5.37741 50.3982 5.40617L36.9732 18.619C36.7695 18.8203 36.5077 18.9209 36.2313 18.9209H36.1586V0.316573C36.1586 0.259064 36.115 0.215932 36.0568 0.201554C35.9113 0.187177 35.7659 0.1728 35.6205 0.158422C35.6205 0.158422 35.6059 0.158422 35.5913 0.158422C35.5186 0.158422 35.4313 0.158422 35.3586 0.144045C34.9514 0.11529 34.5442 0.0865354 34.1369 0.0577806C34.0642 0.0577806 34.006 0.0577806 33.9333 0.0577806C33.4533 0.0290259 32.9733 0.0146484 32.4933 0.0146484C32.0133 0.0146484 31.5334 0.0290259 31.0534 0.0577806C30.9806 0.0577806 30.9224 0.0577806 30.8497 0.0577806C30.4425 0.072158 30.0352 0.100913 29.6279 0.144045C29.5552 0.144045 29.4679 0.144045 29.3952 0.158422C29.3952 0.158422 29.3806 0.158422 29.3662 0.158422C29.2206 0.158422 29.0752 0.187177 28.9298 0.201554C28.8716 0.201554 28.8279 0.259064 28.8279 0.316573V18.9209H28.7407C28.4643 18.9209 28.2026 18.8059 27.9989 18.619L14.6176 5.40617C14.6176 5.40617 14.5158 5.36304 14.4721 5.40617C14.3558 5.49243 14.2394 5.5787 14.1085 5.65058H14.0794C13.7595 5.86624 13.4395 6.09628 13.1195 6.3407C13.0758 6.36945 13.0176 6.41258 12.974 6.44133C12.0286 7.14583 11.1267 7.89346 10.2541 8.69859C9.93411 8.98613 9.61411 9.28809 9.30867 9.60438C9.29411 9.61876 9.27955 9.64751 9.26502 9.66189C9.16322 9.76253 9.07595 9.84879 8.97413 9.94943C8.9305 9.99256 8.9305 10.0644 8.97413 10.1076L22.8209 23.7661L22.8355 23.7517Z" fill="#081128"/>
<path d="M25.25 32.0331C24.13 30.1497 22.341 28.7839 20.2175 28.2088L1.36723 23.1191C1.36723 23.1191 1.23632 23.1335 1.22178 23.191C1.17814 23.3204 1.14905 23.4643 1.10542 23.5937C1.10542 23.5937 1.09087 23.6224 1.07632 23.6368C1.04723 23.7662 1.01815 23.8812 0.98906 24.0106C0.959963 24.0969 0.945419 24.1831 0.930875 24.2694C0.814517 24.7007 0.712702 25.1464 0.625432 25.5777C0.596343 25.7359 0.552708 25.9084 0.523618 26.0666C0.450893 26.4116 0.392713 26.7567 0.334534 27.1161C0.305444 27.3174 0.276354 27.533 0.247264 27.7343C0.218174 27.9499 0.189084 28.1513 0.159994 28.367C0.116359 28.712 0.0872697 29.057 0.0581798 29.4021C0.0581798 29.5027 0.0290899 29.6034 0.0290899 29.704C0.0290899 29.7184 0.0290899 29.7328 0.0290899 29.7471C0.0290899 29.8909 0 30.0347 0 30.1641C0 30.2216 0.0290899 30.2647 0.0872697 30.2791L18.2829 35.1962C18.5448 35.2681 18.7775 35.4406 18.9084 35.6707L18.9521 35.7425L2.73445 45.016C2.73445 45.016 2.66172 45.1022 2.69081 45.1597C2.74899 45.2747 2.80717 45.3897 2.86535 45.5191C2.86535 45.5479 2.86535 45.5623 2.8799 45.591C3.24352 46.3674 3.62169 47.1151 4.04349 47.8627L4.3053 48.3227L4.55257 48.7396C5.00346 49.4729 5.4689 50.1918 5.97797 50.8963C5.97797 50.9106 6.00706 50.925 6.0216 50.9394C6.09433 51.0544 6.1816 51.1694 6.25432 51.27C6.28342 51.3132 6.35614 51.3276 6.39978 51.2988L22.661 42.0254C22.8064 42.2699 22.8356 42.543 22.7629 42.8162L17.9775 60.9317C17.9775 60.9317 17.9775 61.0324 18.0358 61.0611C18.1521 61.1186 18.2829 61.1761 18.3993 61.2336C18.4139 61.248 18.4285 61.2624 18.4575 61.2768C20.3193 62.1538 22.2683 62.8726 24.3046 63.3903C24.3337 63.3903 24.3482 63.3903 24.3628 63.3903C24.4936 63.419 24.6246 63.4621 24.7555 63.4909C24.8136 63.5053 24.8864 63.4621 24.9009 63.4046L29.8607 44.6422C30.428 42.4999 30.1226 40.2714 28.9881 38.3736L25.25 32.0188V32.0331Z" fill="#081128"/>
<path d="M65.0009 29.7045C65.0009 29.6038 64.9717 29.4888 64.9717 29.3882C64.9426 29.0719 64.9136 28.77 64.8699 28.4537C64.8409 28.2093 64.8117 27.9649 64.7682 27.7061C64.739 27.5191 64.7099 27.3322 64.6809 27.1453C64.6227 26.7715 64.5499 26.3977 64.4772 26.0239C64.4482 25.8802 64.419 25.7364 64.39 25.5926C64.2882 25.0893 64.1717 24.5862 64.0409 24.0973C64.0409 24.0686 64.0409 24.0398 64.0263 24.0111C63.9973 23.8817 63.9682 23.7523 63.9246 23.6229C63.9246 23.6085 63.9246 23.5942 63.8954 23.5798C63.8517 23.4504 63.8227 23.3066 63.779 23.1772C63.7646 23.1197 63.6918 23.0766 63.6336 23.1053L44.7834 28.1949C42.6453 28.77 40.8563 30.1215 39.7508 32.0192L36.0128 38.3597C34.8928 40.2575 34.5873 42.5148 35.1401 44.6426L40.1144 63.3907C40.1144 63.3907 40.1871 63.4914 40.2599 63.477C40.3908 63.4482 40.5217 63.4051 40.6526 63.3764C40.6671 63.3764 40.6963 63.3764 40.7253 63.3764C42.7616 62.8588 44.7106 62.1399 46.5724 61.2629C46.587 61.2629 46.616 61.2341 46.6306 61.2198C46.747 61.1622 46.8778 61.1047 46.9942 61.0472C47.0378 61.0185 47.067 60.961 47.0524 60.9178L42.2526 42.8023C42.1799 42.5292 42.2235 42.256 42.3543 42.0116L58.6156 51.285C58.6738 51.3138 58.7319 51.2994 58.7611 51.2563C58.8483 51.1412 58.9211 51.0405 58.9938 50.9255C59.0083 50.9255 59.0229 50.8967 59.0374 50.8824C59.2701 50.5517 59.5028 50.221 59.7211 49.8904C59.7355 49.8616 59.7647 49.8329 59.7792 49.8041C60.6664 48.467 61.4518 47.058 62.1355 45.5915C62.1355 45.5628 62.15 45.5484 62.15 45.5196C62.2082 45.4046 62.2664 45.2896 62.3246 45.1602C62.3537 45.1027 62.3246 45.0452 62.281 45.0164L46.0488 35.7574L46.0924 35.6855C46.2234 35.4555 46.456 35.283 46.7178 35.2111L64.9282 30.294C64.9282 30.294 65.0153 30.2365 65.0153 30.179C65.0153 30.0352 65.0009 29.8914 64.9863 29.762C64.9863 29.7476 64.9863 29.7332 64.9863 29.7189L65.0009 29.7045Z" fill="#081128"/>
<path d="M200.066 46.3382C194.073 46.3382 191.033 42.6719 191.033 35.3394C191.033 28.3664 194.058 24.5852 200.066 24.5852C205.317 24.5852 207.483 26.9 208.08 30.6093H214.029C213.534 24.3838 209.083 19.3374 200.066 19.3374C190.786 19.3374 185.099 25.2034 185.099 35.3538C185.099 45.7487 190.786 51.5571 200.066 51.5571C209.403 51.5571 213.985 46.7263 214.232 39.5233H208.356C208.167 43.6784 205.578 46.3669 200.066 46.3669V46.3382Z" fill="#081128"/>
<path d="M93.1598 19.3374C83.8224 19.3374 78.1353 25.2034 78.1353 35.3538C78.1353 45.7487 83.8224 51.5571 93.1598 51.5571C102.251 51.5571 106.833 47.0283 107.327 40.2565H101.451C101.014 43.9803 98.4838 46.3669 93.1598 46.3669C87.5895 46.3669 84.4332 43.2471 84.186 37.0648H107.312C107.501 35.3538 107.443 34.0743 107.371 32.5502C106.935 24.9734 102.178 19.3518 93.1458 19.3518L93.1598 19.3374ZM84.3169 32.2196C85.1169 27.4463 88.1567 24.5277 93.1023 24.5277C98.2362 24.5277 101.087 27.4463 101.451 32.2196H84.3169Z" fill="#081128"/>
<path d="M167.543 19.3228C158.205 19.3228 152.519 25.1887 152.519 35.3391C152.519 45.734 158.205 51.5424 167.543 51.5424C176.634 51.5424 181.216 47.0135 181.71 40.2418H175.834C175.397 43.9655 172.867 46.3522 167.543 46.3522C161.972 46.3522 158.817 43.1748 158.569 37.0069H181.695C181.884 35.2959 181.826 34.0739 181.754 32.5499C181.317 24.973 176.561 19.3515 167.529 19.3515L167.543 19.3228ZM158.7 32.2192C159.5 27.4459 162.54 24.5273 167.485 24.5273C172.43 24.5273 175.47 27.4459 175.834 32.2192H158.7Z" fill="#081128"/>
<path d="M134.861 17.7267V22.5575H121.843V16.8927C121.843 16.0014 122.57 15.2825 123.472 15.2825H131.631V9.67529H123.748C119.254 9.67529 115.603 13.2841 115.603 17.7267V22.5575H109.086V27.3883H115.617V51.5422H121.872V27.3883H134.89V51.5422H141.144V27.3883H150.918V22.5575H141.144V16.8927C141.144 16.0014 141.871 15.2825 142.773 15.2825H150.932V9.67529H143.049C138.555 9.67529 134.904 13.2841 134.904 17.7267H134.861Z" fill="#081128"/>
<path d="M250.435 9.66064H244.398V15.2823H250.435V9.66064Z" fill="#081128"/>
<path d="M250.435 19.3374H244.398V51.5428H250.435V19.3374Z" fill="#081128"/>
<path d="M228.632 9.66064H222.378V19.3222H215.862V24.153H222.378V45.2446C222.378 48.7096 225.228 51.5276 228.733 51.5276H239.511V46.208H230.261C229.359 46.208 228.632 45.4891 228.632 44.5977V24.153H239.511V19.3222H228.632V9.66064Z" fill="#081128"/>
</g>
</g>
<defs>
<clipPath id="clip0_7528_427">
<rect width="250.435" height="64" fill="white"/>
</clipPath>
</defs>
</svg>
