<svg width="96" height="97" viewBox="0 0 96 97" fill="none" xmlns="http://www.w3.org/2000/svg">
<g clip-path="url(#clip0_3350_123000)">
<path d="M0 48.5C0 21.9903 21.4903 0.5 48 0.5C74.5097 0.5 96 21.9903 96 48.5C96 75.0097 74.5097 96.5 48 96.5C21.4903 96.5 0 75.0097 0 48.5Z" fill="#F7F7F9"/>
<rect x="17" y="24.5" width="62" height="22" rx="4" fill="url(#paint0_linear_3350_123000)"/>
<rect x="9" y="32.5" width="78" height="28" rx="4" fill="url(#paint1_linear_3350_123000)"/>
<rect x="-1" y="44.5" width="98" height="68" rx="4" fill="url(#paint2_linear_3350_123000)"/>
<path d="M47.3424 72.6096L43.9696 73.1717C42.9909 73.3349 42.4492 74.3985 42.893 75.2859C42.9639 75.4277 43.0571 75.5571 43.1692 75.6692L43.2228 75.7228C43.705 76.205 44.4048 76.3988 45.0664 76.2334L46.7748 75.8063C47.5792 75.6052 48.4208 75.6052 49.2252 75.8063L50.9336 76.2334C51.5952 76.3988 52.295 76.205 52.7772 75.7228L52.8308 75.6692C52.9429 75.5571 53.0361 75.4277 53.107 75.2859C53.5508 74.3985 53.0091 73.3349 52.0304 73.1717L48.6576 72.6096C48.2222 72.537 47.7778 72.537 47.3424 72.6096Z" fill="url(#paint3_linear_3350_123000)"/>
<circle cx="37" cy="63.5" r="3" fill="url(#paint4_linear_3350_123000)"/>
<circle cx="59" cy="63.5" r="3" fill="url(#paint5_linear_3350_123000)"/>
</g>
<defs>
<linearGradient id="paint0_linear_3350_123000" x1="72.2713" y1="34.291" x2="34.0512" y2="22.0184" gradientUnits="userSpaceOnUse">
<stop stop-color="#F1F2F4"/>
<stop offset="1" stop-color="#C8CCD5"/>
</linearGradient>
<linearGradient id="paint1_linear_3350_123000" x1="78.5349" y1="44.9613" x2="30.3483" y2="29.6666" gradientUnits="userSpaceOnUse">
<stop stop-color="#F1F2F4"/>
<stop offset="1" stop-color="#BABFCA"/>
</linearGradient>
<linearGradient id="paint2_linear_3350_123000" x1="86.3643" y1="74.7631" x2="21.4727" y2="64.1074" gradientUnits="userSpaceOnUse">
<stop stop-color="#F1F2F4"/>
<stop offset="1" stop-color="#ADB3C1"/>
</linearGradient>
<linearGradient id="paint3_linear_3350_123000" x1="48" y1="72.5" x2="48" y2="76.5" gradientUnits="userSpaceOnUse">
<stop stop-color="#768097"/>
<stop offset="1" stop-color="#4B5367"/>
</linearGradient>
<linearGradient id="paint4_linear_3350_123000" x1="37" y1="60.5" x2="37" y2="66.5" gradientUnits="userSpaceOnUse">
<stop stop-color="#768097"/>
<stop offset="1" stop-color="#4B5367"/>
</linearGradient>
<linearGradient id="paint5_linear_3350_123000" x1="59" y1="60.5" x2="59" y2="66.5" gradientUnits="userSpaceOnUse">
<stop stop-color="#768097"/>
<stop offset="1" stop-color="#4B5367"/>
</linearGradient>
<clipPath id="clip0_3350_123000">
<path d="M0 48.5C0 21.9903 21.4903 0.5 48 0.5C74.5097 0.5 96 21.9903 96 48.5C96 75.0097 74.5097 96.5 48 96.5C21.4903 96.5 0 75.0097 0 48.5Z" fill="white"/>
</clipPath>
</defs>
</svg>
