<svg width="96" height="96" viewBox="0 0 96 96" fill="none" xmlns="http://www.w3.org/2000/svg">
<path d="M0 48C0 21.4903 21.4903 0 48 0C74.5097 0 96 21.4903 96 48C96 74.5097 74.5097 96 48 96C21.4903 96 0 74.5097 0 48Z" fill="#F3F6FB"/>
<path d="M28.6248 31.2094L26.851 25.5006C25.9749 22.6808 26.2548 19.6285 27.6292 17.0151L27.6986 16.8833C28.2096 15.9115 28.874 15.0284 29.6662 14.2681V14.2681C31.9859 12.0416 35.2186 11.0372 38.3917 11.5571V11.5571C39.4752 11.7346 40.523 12.0857 41.4948 12.5967L41.6266 12.6661C44.24 14.0405 46.2004 16.3967 47.0765 19.2165L48.8503 24.9253" stroke="url(#paint0_linear_3383_346)" stroke-width="3.91306"/>
<rect x="15.274" y="29.4915" width="46.9567" height="41.7393" rx="5.21742" transform="rotate(-4 15.274 29.4915)" fill="url(#paint1_linear_3383_346)"/>
<circle cx="39.8022" cy="43.6847" r="3.91306" transform="rotate(-4 39.8022 43.6847)" fill="url(#paint2_linear_3383_346)"/>
<path d="M29.5582 74.3666L31.1766 51.2231C31.269 49.9008 32.4159 48.9039 33.7382 48.9963L79.8256 52.2191C81.1479 52.3115 82.1448 53.4584 82.0523 54.7807L80.2666 80.3183L80.0121 83.9578C79.8844 85.7833 77.8427 86.8001 76.3089 85.802L66.9126 79.6873C66.5708 79.4648 66.1779 79.3331 65.771 79.3047L31.785 76.9281C30.4627 76.8357 29.4658 75.6888 29.5582 74.3666Z" fill="url(#paint3_linear_3383_346)"/>
<path d="M38.7849 67.0561C38.5276 67.0381 38.3367 66.8102 38.364 66.5538L38.3955 66.259C38.4582 65.6707 37.8356 65.2532 37.3152 65.5345L37.0579 65.6736C36.8292 65.7972 36.5436 65.7048 36.4307 65.4706C36.3183 65.2376 36.4223 64.9578 36.6595 64.8547L36.9245 64.7395C37.469 64.5029 37.5215 63.7513 37.0153 63.4412L36.7689 63.2903C36.5483 63.1551 36.4843 62.8636 36.628 62.6485C36.7724 62.4323 37.0681 62.3806 37.2774 62.5348L37.5128 62.7083C37.989 63.0593 38.6636 62.7325 38.6834 62.1413L38.6933 61.8449C38.702 61.5872 38.9227 61.3882 39.1799 61.4061C39.4372 61.4241 39.6281 61.652 39.6008 61.9084L39.5693 62.2032C39.5067 62.7915 40.1292 63.209 40.6496 62.9277L40.9069 62.7886C41.1356 62.665 41.4212 62.7574 41.5341 62.9916C41.6465 63.2246 41.5426 63.5044 41.3053 63.6075L41.0403 63.7227C40.4959 63.9593 40.4433 64.7109 40.9495 65.021L41.1959 65.1719C41.4165 65.3071 41.4805 65.5986 41.3368 65.8137C41.1924 66.0299 40.8967 66.0816 40.6874 65.9274L40.452 65.7539C39.9758 65.4029 39.3012 65.7297 39.2814 66.3209L39.2715 66.6173C39.2629 66.875 39.0421 67.074 38.7849 67.0561Z" fill="url(#paint4_linear_3383_346)"/>
<path d="M45.6903 67.5389C45.4331 67.5209 45.2422 67.2931 45.2695 67.0367L45.3009 66.7419C45.3636 66.1536 44.741 65.7361 44.2206 66.0174L43.9634 66.1565C43.7347 66.2801 43.4491 66.1877 43.3362 65.9535C43.2238 65.7205 43.3277 65.4407 43.565 65.3376L43.83 65.2224C44.3744 64.9858 44.427 64.2342 43.9208 63.9241L43.6744 63.7731C43.4538 63.638 43.3898 63.3465 43.5335 63.1314C43.6779 62.9152 43.9736 62.8634 44.1828 63.0177L44.4182 63.1912C44.8945 63.5422 45.5691 63.2154 45.5889 62.6241L45.5988 62.3278C45.6074 62.0701 45.8282 61.871 46.0854 61.889C46.3426 61.907 46.5335 62.1349 46.5062 62.3913L46.4748 62.6861C46.4121 63.2743 47.0347 63.6918 47.5551 63.4105L47.8124 63.2715C48.0411 63.1479 48.3267 63.2403 48.4396 63.4744C48.5519 63.7075 48.448 63.9872 48.2107 64.0904L47.9457 64.2056C47.4013 64.4422 47.3488 65.1937 47.8549 65.5038L48.1013 65.6548C48.322 65.79 48.3859 66.0814 48.2422 66.2966C48.0978 66.5127 47.8021 66.5645 47.5929 66.4103L47.3575 66.2368C46.8813 65.8858 46.2067 66.2126 46.1869 66.8038L46.1769 67.1001C46.1683 67.3578 45.9475 67.5569 45.6903 67.5389Z" fill="url(#paint5_linear_3383_346)"/>
<path d="M52.5958 68.0218C52.3386 68.0038 52.1476 67.776 52.175 67.5196L52.2064 67.2247C52.2691 66.6365 51.6465 66.219 51.1261 66.5003L50.8688 66.6393C50.6401 66.763 50.3545 66.6705 50.2416 66.4364C50.1292 66.2033 50.2332 65.9236 50.4704 65.8205L50.7355 65.7053C51.2799 65.4686 51.3324 64.7171 50.8262 64.407L50.5798 64.256C50.3592 64.1209 50.2952 63.8294 50.439 63.6143C50.5834 63.3981 50.879 63.3463 51.0883 63.5006L51.3237 63.6741C51.7999 64.025 52.4745 63.6983 52.4943 63.107L52.5042 62.8107C52.5129 62.553 52.7336 62.3539 52.9909 62.3719C53.2481 62.3899 53.439 62.6177 53.4117 62.8741L53.3803 63.169C53.3176 63.7572 53.9401 64.1747 54.4606 63.8934L54.7178 63.7544C54.9465 63.6308 55.2321 63.7232 55.345 63.9573C55.4574 64.1904 55.3535 64.4701 55.1162 64.5732L54.8512 64.6884C54.3068 64.9251 54.2542 65.6766 54.7604 65.9867L55.0068 66.1377C55.2274 66.2728 55.2914 66.5643 55.1477 66.7794C55.0033 66.9956 54.7076 67.0474 54.4983 66.8931L54.2629 66.7196C53.7867 66.3687 53.1121 66.6954 53.0923 67.2867L53.0824 67.583C53.0738 67.8407 52.853 68.0398 52.5958 68.0218Z" fill="url(#paint6_linear_3383_346)"/>
<path d="M59.5012 68.5047C59.244 68.4867 59.0531 68.2588 59.0804 68.0024L59.1118 67.7076C59.1745 67.1194 58.552 66.7019 58.0315 66.9832L57.7743 67.1222C57.5456 67.2458 57.26 67.1534 57.1471 66.9193C57.0347 66.6862 57.1386 66.4065 57.3759 66.3033L57.6409 66.1881C58.1853 65.9515 58.2379 65.2 57.7317 64.8899L57.4853 64.7389C57.2647 64.6037 57.2007 64.3123 57.3444 64.0971C57.4888 63.881 57.7845 63.8292 57.9938 63.9834L58.2292 64.1569C58.7054 64.5079 59.38 64.1811 59.3998 63.5899L59.4097 63.2936C59.4183 63.0359 59.6391 62.8368 59.8963 62.8548C60.1535 62.8728 60.3445 63.1006 60.3171 63.357L60.2857 63.6518C60.223 64.2401 60.8456 64.6576 61.366 64.3763L61.6233 64.2372C61.852 64.1136 62.1376 64.206 62.2505 64.4402C62.3629 64.6732 62.2589 64.953 62.0217 65.0561L61.7566 65.1713C61.2122 65.4079 61.1597 66.1595 61.6658 66.4696L61.9123 66.6206C62.1329 66.7557 62.1969 67.0472 62.0531 67.2623C61.9087 67.4785 61.6131 67.5303 61.4038 67.376L61.1684 67.2025C60.6922 66.8515 60.0176 67.1783 59.9978 67.7696L59.9879 68.0659C59.9792 68.3236 59.7585 68.5227 59.5012 68.5047Z" fill="url(#paint7_linear_3383_346)"/>
<path d="M66.4067 68.9876C66.1495 68.9696 65.9586 68.7417 65.9859 68.4853L66.0173 68.1905C66.08 67.6022 65.4574 67.1848 64.937 67.466L64.6797 67.6051C64.451 67.7287 64.1654 67.6363 64.0525 67.4021C63.9402 67.1691 64.0441 66.8894 64.2814 66.7862L64.5464 66.671C65.0908 66.4344 65.1433 65.6828 64.6372 65.3727L64.3908 65.2218C64.1701 65.0866 64.1062 64.7951 64.2499 64.58C64.3943 64.3639 64.69 64.3121 64.8992 64.4663L65.1346 64.6398C65.6108 64.9908 66.2854 64.664 66.3052 64.0728L66.3152 63.7764C66.3238 63.5187 66.5446 63.3197 66.8018 63.3376C67.059 63.3556 67.2499 63.5835 67.2226 63.8399L67.1912 64.1347C67.1285 64.723 67.7511 65.1405 68.2715 64.8592L68.5287 64.7201C68.7574 64.5965 69.043 64.6889 69.1559 64.9231C69.2683 65.1561 69.1644 65.4359 68.9271 65.539L68.6621 65.6542C68.1177 65.8908 68.0651 66.6424 68.5713 66.9525L68.8177 67.1034C69.0383 67.2386 69.1023 67.5301 68.9586 67.7452C68.8142 67.9614 68.5185 68.0131 68.3093 67.8589L68.0738 67.6854C67.5976 67.3344 66.923 67.6612 66.9032 68.2524L66.8933 68.5488C66.8847 68.8065 66.6639 69.0056 66.4067 68.9876Z" fill="url(#paint8_linear_3383_346)"/>
<path d="M73.3122 69.4704C73.0549 69.4525 72.864 69.2246 72.8913 68.9682L72.9228 68.6734C72.9854 68.0851 72.3629 67.6676 71.8424 67.9489L71.5852 68.088C71.3565 68.2116 71.0709 68.1192 70.958 67.885C70.8456 67.652 70.9495 67.3722 71.1868 67.2691L71.4518 67.1539C71.9962 66.9173 72.0488 66.1657 71.5426 65.8556L71.2962 65.7047C71.0756 65.5695 71.0116 65.278 71.1553 65.0629C71.2997 64.8467 71.5954 64.795 71.8047 64.9492L72.0401 65.1227C72.5163 65.4737 73.1909 65.1469 73.2107 64.5556L73.2206 64.2593C73.2292 64.0016 73.45 63.8025 73.7072 63.8205C73.9645 63.8385 74.1554 64.0664 74.128 64.3228L74.0966 64.6176C74.0339 65.2058 74.6565 65.6233 75.1769 65.342L75.4342 65.203C75.6629 65.0794 75.9485 65.1718 76.0614 65.406C76.1738 65.639 76.0698 65.9187 75.8326 66.0219L75.5676 66.1371C75.0231 66.3737 74.9706 67.1253 75.4768 67.4353L75.7232 67.5863C75.9438 67.7215 76.0078 68.0129 75.8641 68.2281C75.7197 68.4442 75.424 68.496 75.2147 68.3418L74.9793 68.1683C74.5031 67.8173 73.8285 68.1441 73.8087 68.7353L73.7988 69.0317C73.7901 69.2894 73.5694 69.4884 73.3122 69.4704Z" fill="url(#paint9_linear_3383_346)"/>
<defs>
<linearGradient id="paint0_linear_3383_346" x1="17.1918" y1="12.5171" x2="37.9787" y2="35.3462" gradientUnits="userSpaceOnUse">
<stop offset="0.221903" stop-color="#2652B1"/>
<stop offset="1" stop-color="#BBC9E7"/>
</linearGradient>
<linearGradient id="paint1_linear_3383_346" x1="54.077" y1="48.0674" x2="5.04921" y2="38.0122" gradientUnits="userSpaceOnUse">
<stop stop-color="#BBC9E7"/>
<stop offset="0.485" stop-color="#7692CE"/>
<stop offset="1" stop-color="#2652B1"/>
</linearGradient>
<linearGradient id="paint2_linear_3383_346" x1="39.8022" y1="39.7716" x2="39.8022" y2="47.5978" gradientUnits="userSpaceOnUse">
<stop stop-color="#6A88C9"/>
<stop offset="1" stop-color="#2652B1"/>
</linearGradient>
<linearGradient id="paint3_linear_3383_346" x1="80.0002" y1="47.9998" x2="50.1241" y2="85.9032" gradientUnits="userSpaceOnUse">
<stop stop-color="#F3F6FB"/>
<stop offset="1" stop-color="#C5D1EA"/>
</linearGradient>
<linearGradient id="paint4_linear_3383_346" x1="66.0001" y1="46.4999" x2="25.7127" y2="56.8132" gradientUnits="userSpaceOnUse">
<stop stop-color="#2652B1"/>
<stop offset="1" stop-color="#BBC9E7"/>
</linearGradient>
<linearGradient id="paint5_linear_3383_346" x1="66.0001" y1="46.4999" x2="25.7127" y2="56.8132" gradientUnits="userSpaceOnUse">
<stop stop-color="#2652B1"/>
<stop offset="1" stop-color="#BBC9E7"/>
</linearGradient>
<linearGradient id="paint6_linear_3383_346" x1="66.0001" y1="46.4999" x2="25.7127" y2="56.8132" gradientUnits="userSpaceOnUse">
<stop stop-color="#2652B1"/>
<stop offset="1" stop-color="#BBC9E7"/>
</linearGradient>
<linearGradient id="paint7_linear_3383_346" x1="66.0001" y1="46.4999" x2="25.7127" y2="56.8132" gradientUnits="userSpaceOnUse">
<stop stop-color="#2652B1"/>
<stop offset="1" stop-color="#BBC9E7"/>
</linearGradient>
<linearGradient id="paint8_linear_3383_346" x1="66.0001" y1="46.4999" x2="25.7127" y2="56.8132" gradientUnits="userSpaceOnUse">
<stop stop-color="#2652B1"/>
<stop offset="1" stop-color="#BBC9E7"/>
</linearGradient>
<linearGradient id="paint9_linear_3383_346" x1="66.0001" y1="46.4999" x2="25.7127" y2="56.8132" gradientUnits="userSpaceOnUse">
<stop stop-color="#2652B1"/>
<stop offset="1" stop-color="#BBC9E7"/>
</linearGradient>
</defs>
</svg>
