<svg width="96" height="96" viewBox="0 0 96 96" fill="none" xmlns="http://www.w3.org/2000/svg">
<path d="M0 48C0 21.4903 21.4903 0 48 0C74.5097 0 96 21.4903 96 48C96 74.5097 74.5097 96 48 96C21.4903 96 0 74.5097 0 48Z" fill="#FDF5F6"/>
<path d="M75.705 72H20.295C18.4174 72 17.2669 69.9412 18.251 68.3422L45.956 23.3215C46.8932 21.7986 49.1068 21.7986 50.044 23.3215L77.749 68.3422C78.7331 69.9412 77.5826 72 75.705 72Z" fill="url(#paint0_linear_3521_932)"/>
<rect x="46" y="36" width="4.34856" height="19.5685" rx="2.17428" fill="url(#paint1_linear_3521_932)"/>
<rect x="46" y="59.9176" width="4.34856" height="4.34856" rx="2.17428" fill="url(#paint2_linear_3521_932)"/>
<defs>
<linearGradient id="paint0_linear_3521_932" x1="53.9598" y1="20.569" x2="37.9039" y2="72.0996" gradientUnits="userSpaceOnUse">
<stop stop-color="#EF90A1"/>
<stop offset="1" stop-color="#E33F5D"/>
</linearGradient>
<linearGradient id="paint1_linear_3521_932" x1="51.6531" y1="49.698" x2="44.7825" y2="49.4598" gradientUnits="userSpaceOnUse">
<stop stop-color="#F5B8C3"/>
<stop offset="1" stop-color="#FDF5F6"/>
</linearGradient>
<linearGradient id="paint2_linear_3521_932" x1="51.6531" y1="62.9616" x2="44.9376" y2="61.9142" gradientUnits="userSpaceOnUse">
<stop stop-color="#F5B8C3"/>
<stop offset="1" stop-color="#FDF5F6"/>
</linearGradient>
</defs>
</svg>
