<svg width="96" height="96" viewBox="0 0 96 96" fill="none" xmlns="http://www.w3.org/2000/svg">
<path d="M0 48C0 21.4903 21.4903 0 48 0C74.5097 0 96 21.4903 96 48C96 74.5097 74.5097 96 48 96C21.4903 96 0 74.5097 0 48Z" fill="#F3F6FB"/>
<circle cx="48" cy="48" r="30" fill="url(#paint0_linear_3898_187)"/>
<path d="M45 63C45 64.6569 46.3431 66 48 66C49.6569 66 51 64.6569 51 63C51 61.3431 49.6569 60 48 60C46.3431 60 45 61.3431 45 63ZM48 30C42.3951 30 37.6907 33.8378 36.3699 39.0303C35.9615 40.636 37.3431 42 39 42C40.6569 42 41.9398 40.5763 42.7387 39.1247C43.7613 37.2664 45.7399 36 48 36C51.3 36 54 38.7 54 42C54 47.3084 46.9551 47.3332 45.3311 54.0207C44.9401 55.6307 46.3431 57 48 57C49.6569 57 50.9303 55.5885 51.6516 54.0969C53.7197 49.82 60 48.2651 60 42C60 35.37 54.63 30 48 30Z" fill="url(#paint1_linear_3898_187)"/>
<defs>
<linearGradient id="paint0_linear_3898_187" x1="53.5873" y1="13.7113" x2="28.5507" y2="73.9766" gradientUnits="userSpaceOnUse">
<stop stop-color="#819BD2"/>
<stop offset="1" stop-color="#2652B1"/>
</linearGradient>
<linearGradient id="paint1_linear_3898_187" x1="67.2" y1="55.2" x2="29.6409" y2="51.2947" gradientUnits="userSpaceOnUse">
<stop stop-color="#AFC0E3"/>
<stop offset="1" stop-color="#F3F6FB"/>
</linearGradient>
</defs>
</svg>
