<svg width="96" height="96" viewBox="0 0 96 96" fill="none" xmlns="http://www.w3.org/2000/svg">
<path d="M0 48C0 21.4903 21.4903 0 48 0C74.5097 0 96 21.4903 96 48C96 74.5097 74.5097 96 48 96C21.4903 96 0 74.5097 0 48Z" fill="#F3F6FB"/>
<path d="M64.4553 20.8998C63.8792 20.3237 63.0978 20 62.2831 20H26.2222C22.7689 20 20 22.8 20 26.2222V69.7778C20 73.2 22.7689 76 26.2222 76H69.7778C73.2 76 76 73.2 76 69.7778V33.7169C76 32.9022 75.6763 32.1208 75.1002 31.5447L64.4553 20.8998ZM48 69.7778C42.8356 69.7778 38.6667 65.6089 38.6667 60.4444C38.6667 55.28 42.8356 51.1111 48 51.1111C53.1644 51.1111 57.3333 55.28 57.3333 60.4444C57.3333 65.6089 53.1644 69.7778 48 69.7778ZM57.3333 35.5947C57.3333 37.2913 55.958 38.6667 54.2613 38.6667H29.2942C27.5976 38.6667 26.2222 37.2913 26.2222 35.5947V29.2942C26.2222 27.5976 27.5976 26.2222 29.2942 26.2222H54.2613C55.958 26.2222 57.3333 27.5976 57.3333 29.2942V35.5947Z" fill="url(#paint0_linear_3634_1083)"/>
<path d="M28.0888 38.6667H55.4666C56.4975 38.6667 57.3333 37.8309 57.3333 36.8V28.0889C57.3333 27.058 56.4975 26.2222 55.4666 26.2222H28.0888C27.0579 26.2222 26.2222 27.058 26.2222 28.0889V36.8C26.2222 37.8309 27.0579 38.6667 28.0888 38.6667Z" fill="url(#paint1_linear_3634_1083)"/>
<path d="M38.6667 60.4444C38.6667 65.6089 42.8356 69.7778 48.0001 69.7778C53.1645 69.7778 57.3334 65.6089 57.3334 60.4444C57.3334 55.28 53.1645 51.1111 48.0001 51.1111C42.8356 51.1111 38.6667 55.28 38.6667 60.4444Z" fill="url(#paint2_linear_3634_1083)"/>
<defs>
<linearGradient id="paint0_linear_3634_1083" x1="53.2149" y1="15.9972" x2="29.8473" y2="72.2448" gradientUnits="userSpaceOnUse">
<stop stop-color="#819BD2"/>
<stop offset="1" stop-color="#2652B1"/>
</linearGradient>
<linearGradient id="paint1_linear_3634_1083" x1="66.6666" y1="34.9333" x2="23.9473" y2="18.2764" gradientUnits="userSpaceOnUse">
<stop stop-color="#AFC0E3"/>
<stop offset="1" stop-color="#F3F6FB"/>
</linearGradient>
<linearGradient id="paint2_linear_3634_1083" x1="62.9334" y1="64.1778" x2="34.1062" y2="59.6817" gradientUnits="userSpaceOnUse">
<stop stop-color="#AFC0E3"/>
<stop offset="1" stop-color="#F3F6FB"/>
</linearGradient>
</defs>
</svg>
