<svg width="96" height="96" viewBox="0 0 96 96" fill="none" xmlns="http://www.w3.org/2000/svg">
<path d="M0 48C0 21.4903 21.4903 0 48 0C74.5097 0 96 21.4903 96 48C96 74.5097 74.5097 96 48 96C21.4903 96 0 74.5097 0 48Z" fill="#FDF5F6"/>
<path d="M28.6248 31.2094L26.851 25.5006C25.9749 22.6808 26.2548 19.6285 27.6292 17.0151L27.6986 16.8833C28.2096 15.9115 28.874 15.0284 29.6662 14.2681V14.2681C31.9859 12.0416 35.2186 11.0372 38.3917 11.5571V11.5571C39.4752 11.7346 40.523 12.0857 41.4948 12.5967L41.6266 12.6661C44.24 14.0405 46.2004 16.3967 47.0765 19.2165L48.8503 24.9253" stroke="url(#paint0_linear_3385_358)" stroke-width="4.11179"/>
<rect x="15.2739" y="29.4915" width="46.9567" height="41.7393" rx="5.21742" transform="rotate(-4 15.2739 29.4915)" fill="url(#paint1_linear_3385_358)"/>
<circle cx="39.8022" cy="43.6847" r="3.91306" transform="rotate(-4 39.8022 43.6847)" fill="url(#paint2_linear_3385_358)"/>
<circle cx="60.9998" cy="62.0001" r="20" fill="url(#paint3_linear_3385_358)"/>
<path d="M60.9998 53.1113V63.6668L68.7775 71.4446" stroke="url(#paint4_linear_3385_358)" stroke-width="3.5" stroke-linecap="round"/>
<defs>
<linearGradient id="paint0_linear_3385_358" x1="44.4996" y1="-9.5" x2="15.9017" y2="13.3751" gradientUnits="userSpaceOnUse">
<stop offset="0.52724" stop-color="#F1A4B2"/>
<stop offset="1" stop-color="#FCEBEE"/>
</linearGradient>
<linearGradient id="paint1_linear_3385_358" x1="89.6929" y1="48.0674" x2="35.7285" y2="35.77" gradientUnits="userSpaceOnUse">
<stop stop-color="#FCEBEE"/>
<stop offset="1" stop-color="#F1A4B2"/>
</linearGradient>
<linearGradient id="paint2_linear_3385_358" x1="46.0631" y1="45.2499" x2="33.9771" y2="43.3649" gradientUnits="userSpaceOnUse">
<stop stop-color="#E75D76"/>
<stop offset="1" stop-color="#EF90A1"/>
</linearGradient>
<linearGradient id="paint3_linear_3385_358" x1="64.7247" y1="39.1409" x2="48.0335" y2="79.3178" gradientUnits="userSpaceOnUse">
<stop stop-color="#EF90A1"/>
<stop offset="1" stop-color="#E33F5D"/>
</linearGradient>
<linearGradient id="paint4_linear_3385_358" x1="68.7775" y1="68.6668" x2="50.9998" y2="56.4446" gradientUnits="userSpaceOnUse">
<stop stop-color="#F5B8C3"/>
<stop offset="1" stop-color="#FDF5F6"/>
</linearGradient>
</defs>
</svg>
