<svg width="96" height="96" viewBox="0 0 96 96" fill="none" xmlns="http://www.w3.org/2000/svg">
<path d="M0 48C0 21.4903 21.4903 0 48 0C74.5097 0 96 21.4903 96 48C96 74.5097 74.5097 96 48 96C21.4903 96 0 74.5097 0 48Z" fill="#FDF5F6"/>
<path d="M22.8889 69.3428C22.8889 72.8363 25.7473 75.6947 29.2408 75.6947H54.6482C58.1417 75.6947 61 72.8363 61 69.3428V32.2317C61 31.6794 60.5523 31.2317 60 31.2317H23.8889C23.3366 31.2317 22.8889 31.6794 22.8889 32.2317V69.3428Z" fill="url(#paint0_linear_3413_979)"/>
<path d="M39.9633 14.9471L43.3815 16.2637C43.629 16.3591 43.9043 16.3522 44.1467 16.2446L53.0139 12.3087C53.5187 12.0846 54.1096 12.3122 54.3336 12.817L56.0992 16.7946C56.3232 17.2994 56.0957 17.8903 55.5909 18.1143L16.7794 35.3415C16.2746 35.5655 15.6838 35.3379 15.4597 34.8331L13.6942 30.8555C13.4701 30.3507 13.6977 29.7599 14.2025 29.5358L23.0697 25.5999C23.3121 25.4923 23.5019 25.2928 23.5972 25.0453L24.9138 21.6271C25.0091 21.3796 25.1989 21.1801 25.4413 21.0725L39.1982 14.9663C39.4406 14.8587 39.7158 14.8518 39.9633 14.9471Z" fill="url(#paint1_linear_3413_979)"/>
<rect x="32" y="40" width="4" height="26" rx="1" fill="url(#paint2_linear_3413_979)"/>
<rect x="40" y="40" width="4" height="26" rx="1" fill="url(#paint3_linear_3413_979)"/>
<rect x="48" y="40" width="4" height="26" rx="1" fill="url(#paint4_linear_3413_979)"/>
<circle cx="61" cy="62" r="20" fill="url(#paint5_linear_3413_979)"/>
<path d="M54 55L60.4998 61.4997L68.2776 69.2775" stroke="url(#paint6_linear_3413_979)" stroke-width="3.5" stroke-linecap="round"/>
<path d="M68.2776 55L61.7779 61.4998L54.0001 69.2776" stroke="url(#paint7_linear_3413_979)" stroke-width="3.5" stroke-linecap="round"/>
<defs>
<linearGradient id="paint0_linear_3413_979" x1="83.289" y1="51.0198" x2="38.5641" y2="43.2545" gradientUnits="userSpaceOnUse">
<stop stop-color="#FCEBEE"/>
<stop offset="1" stop-color="#F1A4B2"/>
</linearGradient>
<linearGradient id="paint1_linear_3413_979" x1="34" y1="11.5" x2="23.5" y2="38.5" gradientUnits="userSpaceOnUse">
<stop stop-color="#F1A4B2"/>
<stop offset="1" stop-color="#FCEBEE"/>
</linearGradient>
<linearGradient id="paint2_linear_3413_979" x1="34" y1="66" x2="22.8463" y2="60.7523" gradientUnits="userSpaceOnUse">
<stop stop-color="#E75D76"/>
<stop offset="1" stop-color="#EF90A1"/>
</linearGradient>
<linearGradient id="paint3_linear_3413_979" x1="42" y1="66" x2="30.8463" y2="60.7523" gradientUnits="userSpaceOnUse">
<stop stop-color="#E75D76"/>
<stop offset="1" stop-color="#EF90A1"/>
</linearGradient>
<linearGradient id="paint4_linear_3413_979" x1="50" y1="66" x2="38.8463" y2="60.7523" gradientUnits="userSpaceOnUse">
<stop stop-color="#E75D76"/>
<stop offset="1" stop-color="#EF90A1"/>
</linearGradient>
<linearGradient id="paint5_linear_3413_979" x1="64.7249" y1="39.1409" x2="48.0338" y2="79.3177" gradientUnits="userSpaceOnUse">
<stop stop-color="#EF90A1"/>
<stop offset="1" stop-color="#E33F5D"/>
</linearGradient>
<linearGradient id="paint6_linear_3413_979" x1="68.2775" y1="66.4998" x2="50.4998" y2="54.2776" gradientUnits="userSpaceOnUse">
<stop stop-color="#F5B8C3"/>
<stop offset="1" stop-color="#FDF5F6"/>
</linearGradient>
<linearGradient id="paint7_linear_3413_979" x1="56.7778" y1="69.2775" x2="69" y2="51.4998" gradientUnits="userSpaceOnUse">
<stop stop-color="#F5B8C3"/>
<stop offset="1" stop-color="#FDF5F6"/>
</linearGradient>
</defs>
</svg>
